<mxfile host="app.diagrams.net" modified="2023-07-09T18:33:16.978Z" agent="Mozilla/5.0 (Windows NT 10.0; Win64; x64) AppleWebKit/537.36 (KHTML, like Gecko) Chrome/114.0.0.0 Safari/537.36" etag="WfhkqUt-hLw63JwFhJsG" version="21.6.1" type="device">
  <diagram id="R2lEEEUBdFMjLlhIrx00" name="Page-1">
    <mxGraphModel dx="1270" dy="716" grid="1" gridSize="10" guides="1" tooltips="1" connect="1" arrows="1" fold="1" page="1" pageScale="1" pageWidth="850" pageHeight="1100" math="0" shadow="0" extFonts="Permanent Marker^https://fonts.googleapis.com/css?family=Permanent+Marker">
      <root>
        <mxCell id="0" />
        <mxCell id="1" parent="0" />
        <mxCell id="gvFcRJbE4u8SeOfDY9wg-3" value="customer" style="rounded=0;whiteSpace=wrap;html=1;" vertex="1" parent="1">
          <mxGeometry x="430" y="80" width="120" height="60" as="geometry" />
        </mxCell>
        <mxCell id="gvFcRJbE4u8SeOfDY9wg-4" value="name" style="ellipse;whiteSpace=wrap;html=1;" vertex="1" parent="1">
          <mxGeometry x="270" y="60" width="100" height="30" as="geometry" />
        </mxCell>
        <mxCell id="gvFcRJbE4u8SeOfDY9wg-5" value="customer_id" style="ellipse;whiteSpace=wrap;html=1;" vertex="1" parent="1">
          <mxGeometry x="340" y="5" width="120" height="40" as="geometry" />
        </mxCell>
        <mxCell id="gvFcRJbE4u8SeOfDY9wg-6" value="phone" style="ellipse;whiteSpace=wrap;html=1;" vertex="1" parent="1">
          <mxGeometry x="480" y="15" width="120" height="30" as="geometry" />
        </mxCell>
        <mxCell id="gvFcRJbE4u8SeOfDY9wg-7" value="location" style="ellipse;whiteSpace=wrap;html=1;" vertex="1" parent="1">
          <mxGeometry x="600" y="50" width="120" height="30" as="geometry" />
        </mxCell>
        <mxCell id="gvFcRJbE4u8SeOfDY9wg-11" value="location" style="rounded=0;whiteSpace=wrap;html=1;" vertex="1" parent="1">
          <mxGeometry x="30" y="220" width="120" height="60" as="geometry" />
        </mxCell>
        <mxCell id="gvFcRJbE4u8SeOfDY9wg-13" value="country" style="ellipse;whiteSpace=wrap;html=1;" vertex="1" parent="1">
          <mxGeometry x="20" y="60" width="120" height="40" as="geometry" />
        </mxCell>
        <mxCell id="gvFcRJbE4u8SeOfDY9wg-14" value="address" style="ellipse;whiteSpace=wrap;html=1;" vertex="1" parent="1">
          <mxGeometry x="170" y="100" width="120" height="40" as="geometry" />
        </mxCell>
        <mxCell id="gvFcRJbE4u8SeOfDY9wg-15" value="contactinfo" style="ellipse;whiteSpace=wrap;html=1;" vertex="1" parent="1">
          <mxGeometry x="220" y="190" width="120" height="40" as="geometry" />
        </mxCell>
        <mxCell id="gvFcRJbE4u8SeOfDY9wg-16" value="appoinments" style="rounded=0;whiteSpace=wrap;html=1;" vertex="1" parent="1">
          <mxGeometry x="720" y="230" width="120" height="60" as="geometry" />
        </mxCell>
        <mxCell id="gvFcRJbE4u8SeOfDY9wg-17" value="date" style="ellipse;whiteSpace=wrap;html=1;" vertex="1" parent="1">
          <mxGeometry x="690" y="160" width="120" height="40" as="geometry" />
        </mxCell>
        <mxCell id="gvFcRJbE4u8SeOfDY9wg-18" value="time" style="ellipse;whiteSpace=wrap;html=1;" vertex="1" parent="1">
          <mxGeometry x="820" y="180" width="120" height="30" as="geometry" />
        </mxCell>
        <mxCell id="gvFcRJbE4u8SeOfDY9wg-34" value="" style="endArrow=none;html=1;rounded=0;exitX=0.5;exitY=0;exitDx=0;exitDy=0;" edge="1" parent="1" source="gvFcRJbE4u8SeOfDY9wg-11" target="gvFcRJbE4u8SeOfDY9wg-13">
          <mxGeometry relative="1" as="geometry">
            <mxPoint x="80" y="230" as="sourcePoint" />
            <mxPoint x="180" y="230" as="targetPoint" />
          </mxGeometry>
        </mxCell>
        <mxCell id="gvFcRJbE4u8SeOfDY9wg-35" value="" style="endArrow=none;html=1;rounded=0;entryX=0.5;entryY=1;entryDx=0;entryDy=0;exitX=1;exitY=0.25;exitDx=0;exitDy=0;" edge="1" parent="1" source="gvFcRJbE4u8SeOfDY9wg-11" target="gvFcRJbE4u8SeOfDY9wg-14">
          <mxGeometry relative="1" as="geometry">
            <mxPoint x="160" y="250" as="sourcePoint" />
            <mxPoint x="230" y="260" as="targetPoint" />
            <Array as="points" />
          </mxGeometry>
        </mxCell>
        <mxCell id="gvFcRJbE4u8SeOfDY9wg-36" value="" style="endArrow=none;html=1;rounded=0;exitX=1;exitY=1;exitDx=0;exitDy=0;" edge="1" parent="1" source="gvFcRJbE4u8SeOfDY9wg-11" target="gvFcRJbE4u8SeOfDY9wg-15">
          <mxGeometry relative="1" as="geometry">
            <mxPoint x="140" y="300" as="sourcePoint" />
            <mxPoint x="300" y="300" as="targetPoint" />
            <Array as="points" />
          </mxGeometry>
        </mxCell>
        <mxCell id="gvFcRJbE4u8SeOfDY9wg-38" value="" style="endArrow=none;html=1;rounded=0;" edge="1" parent="1" source="gvFcRJbE4u8SeOfDY9wg-4">
          <mxGeometry relative="1" as="geometry">
            <mxPoint x="270" y="110" as="sourcePoint" />
            <mxPoint x="430" y="110" as="targetPoint" />
          </mxGeometry>
        </mxCell>
        <mxCell id="gvFcRJbE4u8SeOfDY9wg-39" value="" style="endArrow=none;html=1;rounded=0;" edge="1" parent="1" target="gvFcRJbE4u8SeOfDY9wg-3">
          <mxGeometry relative="1" as="geometry">
            <mxPoint x="410" y="45" as="sourcePoint" />
            <mxPoint x="570" y="45" as="targetPoint" />
          </mxGeometry>
        </mxCell>
        <mxCell id="gvFcRJbE4u8SeOfDY9wg-40" value="" style="endArrow=none;html=1;rounded=0;" edge="1" parent="1" source="gvFcRJbE4u8SeOfDY9wg-6" target="gvFcRJbE4u8SeOfDY9wg-3">
          <mxGeometry relative="1" as="geometry">
            <mxPoint x="540" y="45" as="sourcePoint" />
            <mxPoint x="540" y="205" as="targetPoint" />
          </mxGeometry>
        </mxCell>
        <mxCell id="gvFcRJbE4u8SeOfDY9wg-41" value="" style="endArrow=none;html=1;rounded=0;" edge="1" parent="1">
          <mxGeometry relative="1" as="geometry">
            <mxPoint x="550" y="120" as="sourcePoint" />
            <mxPoint x="660" y="80" as="targetPoint" />
          </mxGeometry>
        </mxCell>
        <mxCell id="gvFcRJbE4u8SeOfDY9wg-42" value="" style="endArrow=none;html=1;rounded=0;" edge="1" parent="1" target="gvFcRJbE4u8SeOfDY9wg-16">
          <mxGeometry relative="1" as="geometry">
            <mxPoint x="780" y="200" as="sourcePoint" />
            <mxPoint x="940" y="200" as="targetPoint" />
          </mxGeometry>
        </mxCell>
        <mxCell id="gvFcRJbE4u8SeOfDY9wg-43" value="" style="endArrow=none;html=1;rounded=0;entryX=0.7;entryY=0.993;entryDx=0;entryDy=0;entryPerimeter=0;exitX=1;exitY=0.5;exitDx=0;exitDy=0;" edge="1" parent="1" source="gvFcRJbE4u8SeOfDY9wg-16" target="gvFcRJbE4u8SeOfDY9wg-18">
          <mxGeometry relative="1" as="geometry">
            <mxPoint x="860" y="250" as="sourcePoint" />
            <mxPoint x="990" y="270" as="targetPoint" />
          </mxGeometry>
        </mxCell>
        <mxCell id="gvFcRJbE4u8SeOfDY9wg-46" value="" style="endArrow=none;html=1;rounded=0;exitX=0.417;exitY=1.03;exitDx=0;exitDy=0;exitPerimeter=0;" edge="1" parent="1" source="gvFcRJbE4u8SeOfDY9wg-3">
          <mxGeometry relative="1" as="geometry">
            <mxPoint x="390" y="260" as="sourcePoint" />
            <mxPoint x="480" y="260" as="targetPoint" />
          </mxGeometry>
        </mxCell>
        <mxCell id="gvFcRJbE4u8SeOfDY9wg-47" value="HAS" style="shape=rhombus;perimeter=rhombusPerimeter;whiteSpace=wrap;html=1;align=center;" vertex="1" parent="1">
          <mxGeometry x="420" y="240" width="120" height="60" as="geometry" />
        </mxCell>
        <mxCell id="gvFcRJbE4u8SeOfDY9wg-49" value="" style="endArrow=none;html=1;rounded=0;entryX=0;entryY=0.5;entryDx=0;entryDy=0;" edge="1" parent="1" target="gvFcRJbE4u8SeOfDY9wg-16">
          <mxGeometry relative="1" as="geometry">
            <mxPoint x="540" y="269.5" as="sourcePoint" />
            <mxPoint x="700" y="269.5" as="targetPoint" />
          </mxGeometry>
        </mxCell>
        <mxCell id="gvFcRJbE4u8SeOfDY9wg-51" value="" style="endArrow=none;html=1;rounded=0;entryX=0;entryY=0.5;entryDx=0;entryDy=0;" edge="1" parent="1" target="gvFcRJbE4u8SeOfDY9wg-47">
          <mxGeometry relative="1" as="geometry">
            <mxPoint x="150" y="270" as="sourcePoint" />
            <mxPoint x="300" y="269.5" as="targetPoint" />
          </mxGeometry>
        </mxCell>
        <mxCell id="gvFcRJbE4u8SeOfDY9wg-52" value="customerSupport" style="rounded=0;whiteSpace=wrap;html=1;" vertex="1" parent="1">
          <mxGeometry x="80" y="410" width="120" height="50" as="geometry" />
        </mxCell>
        <mxCell id="gvFcRJbE4u8SeOfDY9wg-53" value="phoneSupport" style="ellipse;whiteSpace=wrap;html=1;" vertex="1" parent="1">
          <mxGeometry x="120" y="330" width="120" height="50" as="geometry" />
        </mxCell>
        <mxCell id="gvFcRJbE4u8SeOfDY9wg-54" value="emailsupport" style="ellipse;whiteSpace=wrap;html=1;" vertex="1" parent="1">
          <mxGeometry x="240" y="390" width="120" height="50" as="geometry" />
        </mxCell>
        <mxCell id="gvFcRJbE4u8SeOfDY9wg-56" value="" style="endArrow=none;html=1;rounded=0;entryX=0.573;entryY=1.02;entryDx=0;entryDy=0;entryPerimeter=0;" edge="1" parent="1" target="gvFcRJbE4u8SeOfDY9wg-53">
          <mxGeometry relative="1" as="geometry">
            <mxPoint x="120" y="410" as="sourcePoint" />
            <mxPoint x="280" y="410" as="targetPoint" />
          </mxGeometry>
        </mxCell>
        <mxCell id="gvFcRJbE4u8SeOfDY9wg-57" value="" style="endArrow=none;html=1;rounded=0;" edge="1" parent="1" target="gvFcRJbE4u8SeOfDY9wg-54">
          <mxGeometry relative="1" as="geometry">
            <mxPoint x="200" y="450" as="sourcePoint" />
            <mxPoint x="360" y="450" as="targetPoint" />
          </mxGeometry>
        </mxCell>
        <mxCell id="gvFcRJbE4u8SeOfDY9wg-58" value="" style="endArrow=none;html=1;rounded=0;exitX=1;exitY=0;exitDx=0;exitDy=0;" edge="1" parent="1" source="gvFcRJbE4u8SeOfDY9wg-52">
          <mxGeometry relative="1" as="geometry">
            <mxPoint x="210" y="410" as="sourcePoint" />
            <mxPoint x="480" y="300" as="targetPoint" />
          </mxGeometry>
        </mxCell>
        <mxCell id="gvFcRJbE4u8SeOfDY9wg-59" value="manages" style="rhombus;whiteSpace=wrap;html=1;" vertex="1" parent="1">
          <mxGeometry x="450" y="500" width="120" height="80" as="geometry" />
        </mxCell>
        <mxCell id="gvFcRJbE4u8SeOfDY9wg-73" value="" style="endArrow=none;html=1;rounded=0;exitX=0.5;exitY=1;exitDx=0;exitDy=0;" edge="1" parent="1" source="gvFcRJbE4u8SeOfDY9wg-52" target="gvFcRJbE4u8SeOfDY9wg-59">
          <mxGeometry relative="1" as="geometry">
            <mxPoint x="150" y="480" as="sourcePoint" />
            <mxPoint x="310" y="480" as="targetPoint" />
          </mxGeometry>
        </mxCell>
        <mxCell id="gvFcRJbE4u8SeOfDY9wg-74" value="VehicleInfo" style="rounded=0;whiteSpace=wrap;html=1;" vertex="1" parent="1">
          <mxGeometry x="790" y="500" width="120" height="60" as="geometry" />
        </mxCell>
        <mxCell id="gvFcRJbE4u8SeOfDY9wg-75" value="year" style="ellipse;whiteSpace=wrap;html=1;" vertex="1" parent="1">
          <mxGeometry x="690" y="430" width="120" height="40" as="geometry" />
        </mxCell>
        <mxCell id="gvFcRJbE4u8SeOfDY9wg-78" value="registrationno" style="ellipse;whiteSpace=wrap;html=1;" vertex="1" parent="1">
          <mxGeometry x="810" y="395" width="120" height="45" as="geometry" />
        </mxCell>
        <mxCell id="gvFcRJbE4u8SeOfDY9wg-79" style="edgeStyle=orthogonalEdgeStyle;rounded=0;orthogonalLoop=1;jettySize=auto;html=1;exitX=0.5;exitY=1;exitDx=0;exitDy=0;" edge="1" parent="1" source="gvFcRJbE4u8SeOfDY9wg-75" target="gvFcRJbE4u8SeOfDY9wg-75">
          <mxGeometry relative="1" as="geometry" />
        </mxCell>
        <mxCell id="gvFcRJbE4u8SeOfDY9wg-80" value="model" style="ellipse;whiteSpace=wrap;html=1;" vertex="1" parent="1">
          <mxGeometry x="890" y="440" width="120" height="40" as="geometry" />
        </mxCell>
        <mxCell id="gvFcRJbE4u8SeOfDY9wg-82" value="" style="endArrow=none;html=1;rounded=0;entryX=0.17;entryY=-0.063;entryDx=0;entryDy=0;entryPerimeter=0;" edge="1" parent="1" source="gvFcRJbE4u8SeOfDY9wg-75" target="gvFcRJbE4u8SeOfDY9wg-74">
          <mxGeometry relative="1" as="geometry">
            <mxPoint x="650" y="480" as="sourcePoint" />
            <mxPoint x="810" y="480" as="targetPoint" />
          </mxGeometry>
        </mxCell>
        <mxCell id="gvFcRJbE4u8SeOfDY9wg-83" value="" style="endArrow=none;html=1;rounded=0;entryX=0.5;entryY=1;entryDx=0;entryDy=0;exitX=0.5;exitY=0;exitDx=0;exitDy=0;" edge="1" parent="1" source="gvFcRJbE4u8SeOfDY9wg-74" target="gvFcRJbE4u8SeOfDY9wg-78">
          <mxGeometry relative="1" as="geometry">
            <mxPoint x="850" y="490" as="sourcePoint" />
            <mxPoint x="900" y="439" as="targetPoint" />
          </mxGeometry>
        </mxCell>
        <mxCell id="gvFcRJbE4u8SeOfDY9wg-84" value="" style="endArrow=none;html=1;rounded=0;entryX=0.71;entryY=0.985;entryDx=0;entryDy=0;entryPerimeter=0;exitX=0.917;exitY=0.003;exitDx=0;exitDy=0;exitPerimeter=0;" edge="1" parent="1" source="gvFcRJbE4u8SeOfDY9wg-74" target="gvFcRJbE4u8SeOfDY9wg-80">
          <mxGeometry relative="1" as="geometry">
            <mxPoint x="820" y="490" as="sourcePoint" />
            <mxPoint x="980" y="490" as="targetPoint" />
          </mxGeometry>
        </mxCell>
        <mxCell id="gvFcRJbE4u8SeOfDY9wg-85" value="" style="endArrow=none;html=1;rounded=0;entryX=-0.023;entryY=0.643;entryDx=0;entryDy=0;entryPerimeter=0;" edge="1" parent="1" target="gvFcRJbE4u8SeOfDY9wg-74">
          <mxGeometry relative="1" as="geometry">
            <mxPoint x="570" y="539.5" as="sourcePoint" />
            <mxPoint x="730" y="539.5" as="targetPoint" />
          </mxGeometry>
        </mxCell>
        <mxCell id="gvFcRJbE4u8SeOfDY9wg-86" value="service&lt;br&gt;" style="rounded=0;whiteSpace=wrap;html=1;" vertex="1" parent="1">
          <mxGeometry x="710" y="690" width="120" height="60" as="geometry" />
        </mxCell>
        <mxCell id="gvFcRJbE4u8SeOfDY9wg-87" value="service_id" style="ellipse;whiteSpace=wrap;html=1;" vertex="1" parent="1">
          <mxGeometry x="610" y="610" width="120" height="60" as="geometry" />
        </mxCell>
        <mxCell id="gvFcRJbE4u8SeOfDY9wg-88" value="addOns" style="ellipse;whiteSpace=wrap;html=1;" vertex="1" parent="1">
          <mxGeometry x="740" y="610" width="110" height="60" as="geometry" />
        </mxCell>
        <mxCell id="gvFcRJbE4u8SeOfDY9wg-89" value="service" style="ellipse;whiteSpace=wrap;html=1;" vertex="1" parent="1">
          <mxGeometry x="850" y="650" width="120" height="60" as="geometry" />
        </mxCell>
        <mxCell id="gvFcRJbE4u8SeOfDY9wg-90" value="" style="endArrow=none;html=1;rounded=0;exitX=0.5;exitY=1;exitDx=0;exitDy=0;" edge="1" parent="1" source="gvFcRJbE4u8SeOfDY9wg-87" target="gvFcRJbE4u8SeOfDY9wg-86">
          <mxGeometry relative="1" as="geometry">
            <mxPoint x="580" y="679.5" as="sourcePoint" />
            <mxPoint x="740" y="679.5" as="targetPoint" />
          </mxGeometry>
        </mxCell>
        <mxCell id="gvFcRJbE4u8SeOfDY9wg-91" value="" style="endArrow=none;html=1;rounded=0;" edge="1" parent="1" target="gvFcRJbE4u8SeOfDY9wg-88">
          <mxGeometry relative="1" as="geometry">
            <mxPoint x="770" y="690" as="sourcePoint" />
            <mxPoint x="930" y="690" as="targetPoint" />
          </mxGeometry>
        </mxCell>
        <mxCell id="gvFcRJbE4u8SeOfDY9wg-92" value="" style="endArrow=none;html=1;rounded=0;exitX=1;exitY=0.5;exitDx=0;exitDy=0;" edge="1" parent="1" source="gvFcRJbE4u8SeOfDY9wg-86">
          <mxGeometry relative="1" as="geometry">
            <mxPoint x="715" y="700" as="sourcePoint" />
            <mxPoint x="875" y="700" as="targetPoint" />
          </mxGeometry>
        </mxCell>
        <mxCell id="gvFcRJbE4u8SeOfDY9wg-93" value="" style="endArrow=none;html=1;rounded=0;exitX=0.5;exitY=1;exitDx=0;exitDy=0;entryX=0;entryY=0.75;entryDx=0;entryDy=0;" edge="1" parent="1" source="gvFcRJbE4u8SeOfDY9wg-59" target="gvFcRJbE4u8SeOfDY9wg-86">
          <mxGeometry relative="1" as="geometry">
            <mxPoint x="510" y="590" as="sourcePoint" />
            <mxPoint x="600" y="700" as="targetPoint" />
          </mxGeometry>
        </mxCell>
        <mxCell id="gvFcRJbE4u8SeOfDY9wg-94" value="costEstimation" style="rounded=0;whiteSpace=wrap;html=1;" vertex="1" parent="1">
          <mxGeometry x="180" y="620" width="120" height="60" as="geometry" />
        </mxCell>
        <mxCell id="gvFcRJbE4u8SeOfDY9wg-95" value="service" style="ellipse;whiteSpace=wrap;html=1;" vertex="1" parent="1">
          <mxGeometry x="60" y="540" width="120" height="50" as="geometry" />
        </mxCell>
        <mxCell id="gvFcRJbE4u8SeOfDY9wg-96" value="addOns" style="ellipse;whiteSpace=wrap;html=1;" vertex="1" parent="1">
          <mxGeometry x="220" y="540" width="120" height="50" as="geometry" />
        </mxCell>
        <mxCell id="gvFcRJbE4u8SeOfDY9wg-97" value="" style="endArrow=none;html=1;rounded=0;exitX=0.32;exitY=0.98;exitDx=0;exitDy=0;exitPerimeter=0;" edge="1" parent="1" source="gvFcRJbE4u8SeOfDY9wg-95">
          <mxGeometry relative="1" as="geometry">
            <mxPoint x="40" y="620" as="sourcePoint" />
            <mxPoint x="200" y="620" as="targetPoint" />
          </mxGeometry>
        </mxCell>
        <mxCell id="gvFcRJbE4u8SeOfDY9wg-98" value="" style="endArrow=none;html=1;rounded=0;entryX=1;entryY=1;entryDx=0;entryDy=0;" edge="1" parent="1" target="gvFcRJbE4u8SeOfDY9wg-96">
          <mxGeometry relative="1" as="geometry">
            <mxPoint x="260" y="620" as="sourcePoint" />
            <mxPoint x="420" y="620" as="targetPoint" />
          </mxGeometry>
        </mxCell>
        <mxCell id="gvFcRJbE4u8SeOfDY9wg-99" value="" style="endArrow=none;html=1;rounded=0;" edge="1" parent="1" target="gvFcRJbE4u8SeOfDY9wg-59">
          <mxGeometry relative="1" as="geometry">
            <mxPoint x="300" y="649.5" as="sourcePoint" />
            <mxPoint x="460" y="649.5" as="targetPoint" />
          </mxGeometry>
        </mxCell>
      </root>
    </mxGraphModel>
  </diagram>
</mxfile>
